#!OML:ASF E:/inclinewalkrobotboard/Project1/Captureday1/Session1/subject1.ASF
:FULLY-SPECIFIED
:DEGREES
26
root 0 0 0 1.0406295023995207 -3.6706201141143726 1.8311315295842123
lowerback 11.978288977719146 0.8499305493938166 -0.06382728774023477
upperback -4.231555980026211 1.0791394200604931 -0.5433876972895046
thorax -11.3422973212647 0.49400828143305014 -0.7842399608168341
lowerneck -5.7865429070845655 1.4871680434906136 4.563987584931766
upperneck 18.038942700068173 2.9421726631747567 -8.34116667903081
head 6.591657799197217 1.0744556364843203 -3.223707657202447
rclavicle 2.076499578306744E-16 -2.0391353629186164E-15
rhumerus 19.88593497983857 14.347794559155025 -47.739892581312155
rradius 72.23049080766606
rwrist 27.129073649568934
rhand -34.63188753668765 -57.107975452673784
rfingers 7.125020000000035
rthumb -7.784802427782834 -87.16219678744929
lclavicle -1.1409099664621719E-16 -4.571989216977699E-16
lhumerus 21.027022360079123 -12.450752121406559 45.30660602004303
lradius 70.02588972589501
lwrist -22.26339057837029
lhand -44.78515409105005 -70.25897532369119
lfingers 7.125020000000026
lthumb -17.573082623962442 -40.9374624280416
rfemur -24.69767434316596 -2.3152670786907636 17.11180174145611
rtibia 54.51038218299026
rfoot -28.99448646388756 -16.6538461584193
rtoes -18.49376582971902
lfemur -25.90704584733137 2.442366575730256 -18.063037381615523
ltibia 53.21041931989649
lfoot -30.786414695640175 -3.457550150975247
ltoes -20.86573129850626
27
root 0 0 0 1.0411690697840137 -3.670354394693078 1.8312178695765322
lowerback 11.978430805980732 0.8499634369042792 -0.06401723072740736
upperback -4.2316770227069895 1.079159304756549 -0.5434478906828545
thorax -11.342507058861491 0.494020920504664 -0.7842037294951931
lowerneck -5.787859662235462 1.4871754191460131 4.563560304618815
upperneck 18.039531826524215 2.9421243168124183 -8.340402987658182
head 6.5920770257576216 1.0744409277316143 -3.2234028383990054
rclavicle 2.215561983932508E-16 -2.0179539001711466E-15
rhumerus 19.88588169342694 14.34890996140513 -47.74329039093359
rradius 72.23100520721567
rwrist 27.126795823574334
rhand -34.63268653796136 -57.10629266270527
rfingers 7.125020000000035
rthumb -7.785577919091509 -87.16039225542966
lclavicle -9.556547764277719E-17 -4.294390422819709E-16
lhumerus 21.02613168372033 -12.450191777211106 45.30720258548868
lradius 70.02504124158278
lwrist -22.262753496987855
lhand -44.78440333265213 -70.25588056505354
lfingers 7.125020000000026
lthumb -17.5724039527627 -40.93360812663899
rfemur -24.694769556388152 -2.314421539367875 17.111960162681257
rtibia 54.5071863612939
rfoot -28.994282586876096 -16.655064405324875
rtoes -18.49470456714461
lfemur -25.91224561667284 2.4418323768345216 -18.06386198809049
ltibia 53.209501596487826
lfoot -30.790250431475343 -3.4553243985554905
ltoes -20.858053388797458
28
root 0 0 0 1.0401387816553262 -3.6712323403835225 1.8308189710950609
lowerback 11.978589019006437 0.8496814170734308 -0.06342213699288968
upperback -4.230998889962437 1.0788991498374987 -0.5431147206998835
thorax -11.341858346443429 0.4938767814844045 -0.7841303838107954
lowerneck -5.783632549664102 1.486717463128763 4.564296576830093
upperneck 18.036584734027848 2.9416904372631882 -8.34240171579778
head 6.590407495289129 1.074213766208873 -3.224173151053505
rclavicle 1.8916207832641736E-16 -2.0337620581076345E-15
rhumerus 19.88224533799925 14.34384867418222 -47.73992033034566
rradius 72.2277795070957
rwrist 27.130397728790737
rhand -34.63343908803586 -57.108779122620454
rfingers 7.125020000000035
rthumb -7.786268961367338 -87.1632845287185
lclavicle -1.288459833861178E-16 -4.470821332992206E-16
lhumerus 21.027569208140502 -12.452178427546958 45.30541709644325
lradius 70.02685781767266
lwrist -22.263659250653753
lhand -44.78463248549645 -70.25482312233271
lfingers 7.125020000000026
lthumb -17.572662742233625 -40.93324299999183
rfemur -24.697206606180618 -2.3148075511611315 17.111183685097007
rtibia 54.508732937813775
rfoot -28.994069367628022 -16.65488452050979
rtoes -18.495184073039283
lfemur -25.905036210666296 2.4390545951323435 -18.06447131070176
ltibia 53.199668994563545
lfoot -30.79156668652022 -3.457007551762306
ltoes -20.867598634748813
29
root 0 0 0 1.0398662588213514 -3.67162729129754 1.830671143829978
lowerback 11.97862349786332 0.8496084550984837 -0.06322962547736274
upperback -4.23081555594753 1.0788379626751081 -0.543004769848068
thorax -11.341676903007874 0.4938422275667225 -0.7841068308374849
lowerneck -5.782378510810105 1.4866006654207502 4.564526360019012
upperneck 18.035777339044206 2.9415943664853907 -8.343015442640532
head 6.589932799810851 1.0741618669643658 -3.2244078249435297
rclavicle 1.8973084875120866E-16 -2.0355408647051007E-15
rhumerus 19.88302652456266 14.344394216225265 -47.73909495840745
rradius 72.22826685623737
rwrist 27.13068899407128
rhand -34.63253883793967 -57.10819272943749
rfingers 7.125020000000035
rthumb -7.7854156136735035 -87.16275682934238
lclavicle -1.2814568037905813E-16 -4.486825692230214E-16
lhumerus 21.028181156617237 -12.452899151930628 45.30450954183656
lradius 70.02751255111741
lwrist -22.263910511902097
lhand -44.78433764088734 -70.25286404160933
lfingers 7.125020000000026
lthumb -17.572383639870445 -40.93128783105618
rfemur -24.697282856653008 -2.314881626194988 17.11115863727639
rtibia 54.50909701266206
rfoot -28.994051646836382 -16.654737243725723
rtoes -18.495401973711868
lfemur -25.903314427322435 2.438841106076902 -18.064375641408418
ltibia 53.19817150815427
lfoot -30.791436748007747 -3.4575131163365835
ltoes -20.870484900596548
30
root 0 0 0 1.03974551487326 -3.671827439092354 1.8305981832645832
lowerback 11.978635938221542 0.8495775967663513 -0.06313885210402775
upperback -4.230737051891114 1.078813485265682 -0.5429533031035498
thorax -11.341597953318313 0.4938282085393134 -0.7840965620345433
lowerneck -5.781811430353667 1.4865518118739902 4.564632763526959
upperneck 18.03542560429494 2.941557611078678 -8.343296135179836
head 6.589722223848954 1.0741414910607756 -3.2245147847477984
rclavicle 1.9012345291850367E-16 -2.0355697449730873E-15
rhumerus 19.883556076697936 14.34486372492739 -47.738764819590855
rradius 72.22860172457915
rwrist 27.13068177561962
rhand -34.63188918212792 -57.10755462132422
rfingers 7.125020000000035
rthumb -7.784796089116896 -87.16213015844949
lclavicle -1.2763158427659895E-16 -4.488433997224662E-16
lhumerus 21.028452195957204 -12.453329046687202 45.304012216177895
lradius 70.0278049195665
lwrist -22.264025175267932
lhand -44.78409592193958 -70.25136859739715
lfingers 7.125020000000026
lthumb -17.572151151757907 -40.92978127862628
rfemur -24.6973116868284 -2.314911375159417 17.111168803822487
rtibia 54.509272989054985
rfoot -28.994052781872718 -16.654675944578365
rtoes -18.4953995709538
lfemur -25.90273480676933 2.4389332678042956 -18.06427949956068
ltibia 53.198054541237056
lfoot -30.791270910091214 -3.4576112054726855
ltoes -20.871651724703284
